<?xml version="1.0" encoding="UTF-8" standalone="no"?>
<svg
   xmlns:dc="http://purl.org/dc/elements/1.1/"
   xmlns:cc="http://creativecommons.org/ns#"
   xmlns:rdf="http://www.w3.org/1999/02/22-rdf-syntax-ns#"
   xmlns:svg="http://www.w3.org/2000/svg"
   xmlns="http://www.w3.org/2000/svg"
   xmlns:sodipodi="http://sodipodi.sourceforge.net/DTD/sodipodi-0.dtd"
   xmlns:inkscape="http://www.inkscape.org/namespaces/inkscape"
   width="26.96105mm"
   height="21.16667mm"
   viewBox="0 0 26.96105 21.16667"
   version="1.1"
   id="svg1437"
   inkscape:version="1.0.1 (3bc2e813f5, 2020-09-07)"
   sodipodi:docname="coma.svg">
  <defs
     id="defs1431" />
  <sodipodi:namedview
     id="base"
     pagecolor="#ffffff"
     bordercolor="#666666"
     borderopacity="1.0"
     inkscape:pageopacity="0.0"
     inkscape:pageshadow="2"
     inkscape:zoom="0.41112676"
     inkscape:cx="-186.32302"
     inkscape:cy="103.80267"
     inkscape:document-units="mm"
     inkscape:current-layer="layer1"
     inkscape:document-rotation="0"
     showgrid="false"
     inkscape:window-width="1920"
     inkscape:window-height="1028"
     inkscape:window-x="-8"
     inkscape:window-y="-8"
     inkscape:window-maximized="1" />
  <metadata
     id="metadata1434">
    <rdf:RDF>
      <cc:Work
         rdf:about="">
        <dc:format>image/svg+xml</dc:format>
        <dc:type
           rdf:resource="http://purl.org/dc/dcmitype/StillImage" />
        <dc:title></dc:title>
      </cc:Work>
    </rdf:RDF>
  </metadata>
  <g
     inkscape:label="Слой 1"
     inkscape:groupmode="layer"
     id="layer1"
     transform="translate(-155.1313,-120.70221)">
    <path
       fill-rule="evenodd"
       clip-rule="evenodd"
       fill="#f6f4f2"
       d="m 166.53485,120.70221 c -7.62,4.92125 -11.40355,9.81604 -11.40355,14.71083 0,1.82563 0.4498,3.36021 1.37584,4.60375 0.92604,1.24354 2.2225,1.85209 3.94229,1.85209 1.56104,0 2.88396,-0.47625 3.94229,-1.42875 1.05833,-0.9525 1.5875,-2.27542 1.5875,-3.91584 0,-1.53458 -0.44979,-2.72521 -1.32292,-3.57187 -0.34395,-0.26459 -1.16416,-0.71438 -2.46062,-1.34938 -0.87313,-0.37041 -1.32292,-0.87312 -1.32292,-1.48166 0,-0.97896 0.89959,-2.40771 2.69875,-4.28625 1.50813,-1.5875 2.8575,-2.75167 4.02167,-3.43959 z m 14.26104,0 c -7.46125,5.05354 -11.21834,9.97479 -11.21834,14.71083 0,1.87854 0.47625,3.41313 1.4023,4.63021 0.92604,1.21708 2.27541,1.82563 4.04812,1.82563 1.5875,0 2.88396,-0.47625 3.91583,-1.42875 1.03188,-0.9525 1.53459,-2.27542 1.53459,-3.91584 0,-1.48166 -0.44979,-2.67229 -1.32292,-3.51896 -0.34396,-0.3175 -1.13771,-0.79375 -2.40771,-1.40229 -0.89958,-0.42333 -1.32291,-0.89958 -1.32291,-1.48166 0,-0.97896 0.87312,-2.40771 2.67229,-4.28625 1.45521,-1.48167 2.80458,-2.64584 3.99521,-3.43959 z"
       id="path4"
       style="stroke-width:0.264583" />
  </g>
</svg>
