<?xml version="1.0" encoding="UTF-8" standalone="no"?>
<svg
   xmlns:dc="http://purl.org/dc/elements/1.1/"
   xmlns:cc="http://creativecommons.org/ns#"
   xmlns:rdf="http://www.w3.org/1999/02/22-rdf-syntax-ns#"
   xmlns:svg="http://www.w3.org/2000/svg"
   xmlns="http://www.w3.org/2000/svg"
   xmlns:sodipodi="http://sodipodi.sourceforge.net/DTD/sodipodi-0.dtd"
   xmlns:inkscape="http://www.inkscape.org/namespaces/inkscape"
   version="1.1"
   id="Слой_1"
   x="0px"
   y="0px"
   viewBox="0 0 101.80001 79.999998"
   enable-background="new 0 0 595.3 841.9"
   xml:space="preserve"
   sodipodi:docname="coma-2.svg"
   width="101.8"
   height="80"
   inkscape:version="1.0.1 (3bc2e813f5, 2020-09-07)"><metadata
   id="metadata13"><rdf:RDF><cc:Work
       rdf:about=""><dc:format>image/svg+xml</dc:format><dc:type
         rdf:resource="http://purl.org/dc/dcmitype/StillImage" /><dc:title></dc:title></cc:Work></rdf:RDF></metadata><defs
   id="defs11" /><sodipodi:namedview
   pagecolor="#ffffff"
   bordercolor="#666666"
   borderopacity="1"
   objecttolerance="10"
   gridtolerance="10"
   guidetolerance="10"
   inkscape:pageopacity="0"
   inkscape:pageshadow="2"
   inkscape:window-width="1920"
   inkscape:window-height="1028"
   id="namedview9"
   showgrid="false"
   inkscape:zoom="0.96271175"
   inkscape:cx="259.14999"
   inkscape:cy="40.050012"
   inkscape:window-x="-8"
   inkscape:window-y="-8"
   inkscape:window-maximized="1"
   inkscape:current-layer="Слой_1" />


<path
   fill-rule="evenodd"
   clip-rule="evenodd"
   fill="#ebdfda"
   d="M 43.1,0 C 14.3,18.6 0,37.1 0,55.6 0,62.5 1.7,68.3 5.2,73 8.7,77.7 13.6,80 20.1,80 26.1,80 31,78.2 35,74.6 39,71 41,66 41,59.8 41,54 39.3,49.5 36,46.3 c -1.3,-1 -4.4,-2.7 -9.2,-5.1 -3.3,-1.4 -5,-3.3 -5,-5.6 0,-3.7 3.4,-9.1 10.2,-16.2 5.7,-6 10.8,-10.4 15.2,-13 z M 97,0 C 68.8,19.1 54.6,37.7 54.6,55.6 c 0,7.1 1.8,12.9 5.3,17.5 3.5,4.6 8.6,6.9 15.3,6.9 6,0 10.9,-1.8 14.8,-5.4 3.9,-3.6 5.8,-8.6 5.8,-14.8 0,-5.6 -1.7,-10.1 -5,-13.3 -1.3,-1.2 -4.3,-3 -9.1,-5.3 -3.4,-1.6 -5.1,-3.4 -5.1,-5.6 0,-3.7 3.3,-9.1 10.1,-16.2 5.5,-5.6 10.6,-10 15.1,-13 z"
   id="path6" />
</svg>
